<?xml version="1.0" encoding="utf-8"?>
<!-- Generator: Adobe Illustrator 22.0.1, SVG Export Plug-In . SVG Version: 6.00 Build 0)  -->
<svg version="1.1" id="Layer_1" xmlns="http://www.w3.org/2000/svg" xmlns:xlink="http://www.w3.org/1999/xlink" x="0px" y="0px"
	 viewBox="0 0 200 150" style="enable-background:new 0 0 200 150;" xml:space="preserve">
<style type="text/css">
	.st0{fill:#3D3D3F;}
	.st1{font-family:'MavenProRegular';}
	.st2{font-size:14.4506px;}
	.st3{font-family:'MavenProMedium';}
	.st4{font-size:44.6097px;}
	.st5{letter-spacing:-1;}
	.st6{fill:#146FB1;}
	.st7{fill:url(#SVGID_1_);}
	.st8{fill:url(#SVGID_2_);}
	.st9{fill:url(#SVGID_3_);}
</style>
<g id="color">
	<text transform="matrix(1 0 0 1 25.2722 138.3768)" class="st0 st1 st2">your luxury craftsmans</text>
	<g>
		<text transform="matrix(1 0 0 1 2.8191 120.662)" class="st0 st3 st4 st5">solidsharp</text>
	</g>
	<g>
		<path class="st6" d="M100.2,17.1c22.7,0,37.2,12.1,39.4,13.9l4.9-7c0,0-17-15.4-44.3-15.4C72.9,8.6,56,24,56,24l12.6,18
			c1.1-0.9,5.7-4.2,7-4.9c15.6-9,34.5-8.6,49.4,0l-22.8,32.5c-0.6,0.9-1.3,1.4-1.9,1.4c-0.6,0-1.3-0.5-1.9-1.4l-20-28.5
			c-1.2,0.7-5.9,4-7,4.9l20,28.5c2.2,3.2,5.4,5,8.9,5c3.4,0,6.6-1.8,8.9-5L136.8,35c-2.2-1.8-4.5-3.4-7-4.9
			c-9-5.3-19.2-8.1-29.6-8.1c-10.1,0-20.4,2.6-29.6,8.1l-2.8-4C77.9,20,89.1,17.1,100.2,17.1z"/>
		<g>
			<linearGradient id="SVGID_1_" gradientUnits="userSpaceOnUse" x1="100.2007" y1="70.8295" x2="100.2007" y2="79.8188">
				<stop  offset="0.485" style="stop-color:#146FB1"/>
				<stop  offset="0.5948" style="stop-color:#1873B3"/>
				<stop  offset="0.7086" style="stop-color:#2380B9"/>
				<stop  offset="0.8242" style="stop-color:#3794C4"/>
				<stop  offset="0.9404" style="stop-color:#51B1D3"/>
				<stop  offset="1" style="stop-color:#62C3DC"/>
			</linearGradient>
			<path class="st7" d="M90.7,71.9l1.4,2c2,2.9,5,4.6,8.1,4.6c3.1,0,6.1-1.7,8.1-4.6l1.4-2h-9.5H90.7z"/>
		</g>
		<g>
			<linearGradient id="SVGID_2_" gradientUnits="userSpaceOnUse" x1="100.1858" y1="13.4677" x2="100.1858" y2="8.8118">
				<stop  offset="0" style="stop-color:#146FB1"/>
				<stop  offset="0.2132" style="stop-color:#1873B3"/>
				<stop  offset="0.4342" style="stop-color:#2380B9"/>
				<stop  offset="0.6587" style="stop-color:#3794C4"/>
				<stop  offset="0.8843" style="stop-color:#51B1D3"/>
				<stop  offset="1" style="stop-color:#62C3DC"/>
			</linearGradient>
			<path class="st8" d="M100.1,9.5c-10.3,0-20.4,2.3-29.7,6.6h29.7H130C120.7,11.8,110.5,9.5,100.1,9.5z"/>
		</g>
		<g>
			<linearGradient id="SVGID_3_" gradientUnits="userSpaceOnUse" x1="100.1952" y1="30.4777" x2="100.1952" y2="21.909">
				<stop  offset="0.485" style="stop-color:#146FB1"/>
				<stop  offset="0.5948" style="stop-color:#1873B3"/>
				<stop  offset="0.7086" style="stop-color:#2380B9"/>
				<stop  offset="0.8242" style="stop-color:#3794C4"/>
				<stop  offset="0.9404" style="stop-color:#51B1D3"/>
				<stop  offset="1" style="stop-color:#62C3DC"/>
			</linearGradient>
			<path class="st9" d="M100.1,22.9c-9.3,0-18.4,2.3-26.5,6.6h26.5h26.7C118.6,25.2,109.4,22.9,100.1,22.9z"/>
		</g>
	</g>
</g>
</svg>
