<?xml version="1.0" encoding="utf-8"?>
<!-- Generator: Adobe Illustrator 22.0.1, SVG Export Plug-In . SVG Version: 6.00 Build 0)  -->
<svg version="1.1" id="Layer_1" xmlns="http://www.w3.org/2000/svg" xmlns:xlink="http://www.w3.org/1999/xlink" x="0px" y="0px"
	 viewBox="0 0 200 50" style="enable-background:new 0 0 200 50;" xml:space="preserve">
<style type="text/css">
	.st0{fill:#1A171B;}
	.st1{fill:#FFFFFF;}
</style>
<rect x="0" class="st0" width="200" height="50"/>
<g>
	<g id="black_1_">
		<g>
			<g>
				<path class="st1" d="M24.5,10.5c9.3,0,15.3,5,16.2,5.7l2-2.9c0,0-7-6.3-18.2-6.3C13.3,7,6.4,13.3,6.4,13.3l5.2,7.4
					c0.4-0.4,2.4-1.7,2.9-2c6.4-3.7,14.2-3.5,20.3,0l-9.4,13.4c-0.2,0.4-0.5,0.6-0.8,0.6c-0.2,0-0.5-0.2-0.8-0.6l-8.2-11.7
					c-0.5,0.3-2.4,1.6-2.9,2l8.2,11.7c0.9,1.3,2.2,2,3.6,2c1.4,0,2.7-0.7,3.6-2l11.4-16.3c-0.9-0.7-1.9-1.4-2.9-2
					c-3.7-2.2-7.9-3.3-12.2-3.3c-4.2,0-8.4,1.1-12.2,3.3l-1.2-1.6C15.4,11.7,20,10.5,24.5,10.5z"/>
			</g>
		</g>
	</g>
	<g>
		<path class="st1" d="M44.1,23.1c0-1.5,0.5-2.8,1.6-3.8c1.1-1,2.7-1.6,4.9-1.6c1.6,0,3.2,0.4,4.8,1.2v2.9c-1.6-0.7-3-1.1-4.4-1.1
			c-2.4,0-3.6,0.8-3.6,2.3c0,0.5,0.3,0.9,1,1.3c0.6,0.3,1.4,0.6,2.3,0.9c0.9,0.3,1.8,0.6,2.7,0.9c0.9,0.4,1.7,1,2.3,1.8
			c0.6,0.8,1,1.9,1,3.1c0,1.5-0.5,2.7-1.6,3.8c-1.1,1.1-2.8,1.6-5.1,1.6c-1.9,0-3.7-0.4-5.2-1.3v-3c1.6,0.9,3.2,1.3,5,1.3
			c0,0,0,0,0.1,0c1.2,0,2-0.2,2.6-0.6c0.6-0.4,0.9-1,0.9-1.6c0-0.7-0.3-1.3-0.9-1.8C51.7,29,51,28.6,50,28.4
			c-0.9-0.3-1.8-0.5-2.7-0.8c-0.9-0.3-1.7-0.8-2.3-1.6C44.4,25.2,44.1,24.3,44.1,23.1z"/>
		<path class="st1" d="M59.6,31.8c-0.5-1.3-0.8-2.8-0.8-4.7s0.3-3.4,0.8-4.7c0.5-1.3,1.2-2.2,2.1-2.9c0.9-0.6,1.8-1.1,2.7-1.4
			c0.9-0.3,1.9-0.4,3-0.4s2.1,0.1,3,0.4c0.9,0.3,1.8,0.7,2.7,1.4c0.9,0.6,1.6,1.6,2.1,2.9c0.5,1.3,0.8,2.8,0.8,4.7s-0.3,3.4-0.8,4.7
			C74.7,33,74,34,73.1,34.6c-0.9,0.6-1.8,1.1-2.7,1.4c-0.9,0.3-1.9,0.4-3,0.4s-2.1-0.1-3-0.4c-0.9-0.3-1.8-0.7-2.7-1.4
			C60.8,34,60.1,33,59.6,31.8z M62.6,23.8c-0.3,0.9-0.4,2-0.4,3.3c0,1.3,0.1,2.5,0.4,3.3c0.3,0.9,0.7,1.5,1.2,1.9
			c0.5,0.4,1.1,0.7,1.6,0.8s1.2,0.2,2,0.2c0.8,0,1.4-0.1,2-0.2s1.1-0.4,1.6-0.8c0.5-0.4,0.9-1.1,1.2-1.9c0.3-0.9,0.4-2,0.4-3.3
			c0-1.3-0.1-2.5-0.4-3.3c-0.3-0.9-0.7-1.5-1.2-1.9c-0.5-0.4-1.1-0.7-1.6-0.8s-1.2-0.2-2-0.2c-0.8,0-1.4,0.1-2,0.2s-1.1,0.4-1.6,0.8
			C63.3,22.2,62.9,22.9,62.6,23.8z"/>
		<path class="st1" d="M79.7,36.1v-25h3.3v25H79.7z"/>
		<path class="st1" d="M88.1,15.3v-3.5h3.5v3.5H88.1z M88.2,36.1V18h3.3v18.1H88.2z"/>
		<path class="st1" d="M95.3,26.9c0-1.8,0.2-3.3,0.7-4.6s1.2-2.2,2-2.8c0.9-0.6,1.7-1.1,2.6-1.3c0.9-0.3,1.9-0.4,2.9-0.4
			c1.3,0,2.6,0.2,3.9,0.5v-7.1h3.3v19.4c0,0.4,0,0.8-0.1,1.2c-0.1,0.4-0.3,0.9-0.5,1.5c-0.3,0.6-0.7,1.1-1.2,1.6
			c-0.5,0.4-1.2,0.8-2.2,1.2c-1,0.3-2.1,0.5-3.4,0.5c-0.7,0-1.4-0.1-2-0.2s-1.3-0.4-2.1-0.8c-0.8-0.4-1.4-0.9-2-1.6
			c-0.5-0.7-1-1.6-1.4-2.8C95.5,29.8,95.3,28.4,95.3,26.9z M98.6,26.9c0,1.4,0.1,2.6,0.4,3.5c0.3,0.9,0.6,1.6,1.1,2
			c0.5,0.4,1,0.7,1.5,0.9c0.5,0.2,1.1,0.2,1.7,0.2c2.8,0,4.2-0.9,4.1-2.7v-9.3c-1.2-0.5-2.5-0.8-3.9-0.8c-0.7,0-1.3,0.1-1.9,0.2
			c-0.5,0.1-1.1,0.4-1.6,0.8c-0.5,0.4-0.9,1-1.2,1.9C98.7,24.5,98.6,25.6,98.6,26.9z"/>
		<path class="st1" d="M113.8,23.1c0-1.5,0.5-2.8,1.6-3.8c1.1-1,2.7-1.6,4.9-1.6c1.6,0,3.2,0.4,4.8,1.2v2.9c-1.6-0.7-3-1.1-4.4-1.1
			c-2.4,0-3.6,0.8-3.6,2.3c0,0.5,0.3,0.9,1,1.3c0.6,0.3,1.4,0.6,2.3,0.9c0.9,0.3,1.8,0.6,2.7,0.9c0.9,0.4,1.7,1,2.3,1.8
			c0.6,0.8,1,1.9,1,3.1c0,1.5-0.5,2.7-1.6,3.8s-2.8,1.6-5.1,1.6c-1.9,0-3.7-0.4-5.2-1.3v-3c1.6,0.9,3.2,1.3,5,1.3c0,0,0,0,0.1,0
			c1.2,0,2-0.2,2.6-0.6c0.6-0.4,0.9-1,0.9-1.6c0-0.7-0.3-1.3-0.9-1.8c-0.6-0.5-1.4-0.8-2.3-1.1c-0.9-0.3-1.8-0.5-2.7-0.8
			c-0.9-0.3-1.7-0.8-2.3-1.6C114.1,25.2,113.8,24.3,113.8,23.1z"/>
		<path class="st1" d="M129.7,36.1v-25h3.3v7.5c1.5-0.6,3.1-0.9,4.8-0.9c2.3,0,4,0.7,5.2,2c1.2,1.3,1.9,3.2,1.9,5.7v10.6h-3.4V25.3
			c0-1.8-0.4-3-1.1-3.5c-0.8-0.6-1.7-0.9-2.9-0.9c-1.5,0-3,0.3-4.5,0.9v14.3H129.7z"/>
		<path class="st1" d="M148.1,30.4c0-1.8,0.8-3.2,2.3-4.2c1.5-1,3.6-1.5,6.2-1.5c1.1,0,2.2,0.1,3.3,0.2c-0.1-1.5-0.5-2.6-1.2-3.3
			c-0.8-0.7-2-1-3.7-1c-1.6,0-3.2,0.3-5,0.9v-2.8c1.7-0.6,3.5-1,5.5-1c2.5,0,4.5,0.7,5.8,2c1.4,1.3,2.1,3.2,2.1,5.6v5.2
			c0,0.4,0,0.8-0.1,1.2c-0.1,0.4-0.3,0.9-0.5,1.5c-0.3,0.6-0.7,1.1-1.2,1.6c-0.5,0.4-1.2,0.8-2.2,1.2c-1,0.3-2.1,0.5-3.4,0.5
			c-1.3,0-2.5-0.2-3.5-0.5c-1-0.3-1.8-0.7-2.3-1.2c-0.5-0.4-0.9-1-1.2-1.6c-0.3-0.6-0.5-1.1-0.6-1.5
			C148.1,31.2,148.1,30.8,148.1,30.4z M151.4,30.4c0,2,1.4,3.1,4.3,3.1c0,0,0,0,0.1,0c2.7,0,4.1-1,4.1-2.9v-2.9
			c-0.9-0.1-1.9-0.2-3.1-0.2c-0.5,0-1,0-1.5,0.1c-0.5,0.1-1.1,0.2-1.7,0.4c-0.6,0.2-1.1,0.5-1.5,0.9S151.4,29.8,151.4,30.4z"/>
		<path class="st1" d="M166.9,36.1V19.6c3-1.2,6-1.8,8.8-1.8v3c-1.8,0-3.6,0.3-5.5,0.8v14.6H166.9z"/>
		<path class="st1" d="M178.2,43V23.6c0-0.4,0-0.8,0.1-1.2c0.1-0.4,0.3-0.9,0.5-1.5c0.3-0.6,0.7-1.1,1.2-1.6
			c0.5-0.4,1.2-0.8,2.2-1.2c1-0.3,2.1-0.5,3.4-0.5c0.7,0,1.3,0.1,2,0.2c0.6,0.1,1.3,0.4,2.1,0.8c0.8,0.4,1.4,0.9,2,1.6
			c0.6,0.7,1,1.6,1.4,2.8c0.4,1.2,0.6,2.6,0.6,4.1c0,1.8-0.2,3.3-0.7,4.6c-0.5,1.3-1.2,2.2-2,2.8c-0.9,0.6-1.7,1.1-2.6,1.3
			c-0.9,0.3-1.9,0.4-2.9,0.4c-1.3,0-2.6-0.2-3.8-0.5V43H178.2z M181.5,32.7c1.3,0.5,2.5,0.7,3.8,0.7c0.7,0,1.4-0.1,1.9-0.2
			c0.5-0.1,1-0.4,1.6-0.8c0.5-0.4,0.9-1,1.2-1.9c0.3-0.9,0.4-1.9,0.4-3.2c0-1.4-0.1-2.6-0.4-3.5c-0.3-0.9-0.6-1.6-1.1-2
			c-0.5-0.4-1-0.7-1.5-0.9c-0.5-0.2-1-0.2-1.7-0.2c-2.8,0-4.2,0.9-4.2,2.7V32.7z"/>
	</g>
</g>
</svg>
